<?xml version="1.0" encoding="utf-8"?>
<!-- Generator: Adobe Illustrator 18.1.1, SVG Export Plug-In . SVG Version: 6.00 Build 0)  -->
<!DOCTYPE svg PUBLIC "-//W3C//DTD SVG 1.1//EN" "http://www.w3.org/Graphics/SVG/1.1/DTD/svg11.dtd">
<svg version="1.1" id="Layer_1" xmlns="http://www.w3.org/2000/svg" xmlns:xlink="http://www.w3.org/1999/xlink" x="0px" y="0px"
	 viewBox="0 0 215 57" enable-background="new 0 0 215 57" xml:space="preserve">
<g id="White">
	<linearGradient id="SVGID_1_" gradientUnits="userSpaceOnUse" x1="59.3377" y1="29.6799" x2="27.6257" y2="61.392">
		<stop  offset="0.5581" style="stop-color:#FFFFFF"/>
		<stop  offset="1" style="stop-color:#000000"/>
	</linearGradient>
	<polygon fill="url(#SVGID_1_)" points="64.2,34.5 44.8,34.5 22.8,56.5 42.2,56.5 	"/>
	<polygon fill="#FFFFFF" points="1,34.5 20.4,34.5 42.2,56.5 22.8,56.5 	"/>
	<path fill="#FFFFFF" d="M22.6,33c0,0-24.7-17.9,5.1-32.5h24.1C30.9,5.9,29.1,23.9,47,33H22.6z"/>
	<g>
		<path fill="#FFFFFF" d="M80.4,45.4h-7.6l5.8-22.5h11.1l5.8,22.5H88l-0.8-3.6h-5.9L80.4,45.4z M84,29.8l-1.5,6.3h3.3l-1.4-6.3H84z"
			/>
		<path fill="#FFFFFF" d="M116.6,45.4h-7.9l-3-6.7h-1.5v6.7H97V22.9h11.3c5.2,0,7.7,2.6,7.7,7.9c0,3.6-1.1,6-3.3,7.1L116.6,45.4z
			 M104.2,28.6v4.5h1.7c0.9,0,1.5-0.1,1.9-0.3c0.4-0.2,0.6-0.6,0.6-1.2v-1.5c0-0.6-0.2-1.1-0.6-1.2c-0.4-0.2-1-0.3-1.9-0.3H104.2z"
			/>
		<path fill="#FFFFFF" d="M125.7,45.4h-7.5l1.4-22.5h9.4l2.8,11.4h0.3l2.8-11.4h9.4l1.4,22.5h-7.5l-0.4-10.9h-0.3l-2.7,10.9h-5.5
			l-2.8-10.9h-0.2L125.7,45.4z"/>
		<path fill="#FFFFFF" d="M153.7,45.4h-7.6l5.8-22.5H163l5.8,22.5h-7.6l-0.8-3.6h-5.9L153.7,45.4z M157.3,29.8l-1.5,6.3h3.3
			l-1.4-6.3H157.3z"/>
		<path fill="#FFFFFF" d="M170.2,45.4V22.9h10.1c4.1,0,6.8,0.9,8.4,2.6c1.5,1.7,2.3,4.6,2.3,8.7s-0.8,6.9-2.3,8.7
			c-1.5,1.7-4.3,2.6-8.4,2.6H170.2z M180.4,28.6h-3v11h3c1,0,1.7-0.1,2.1-0.3c0.4-0.2,0.7-0.8,0.7-1.6v-7.2c0-0.8-0.2-1.3-0.7-1.6
			C182.1,28.7,181.4,28.6,180.4,28.6z"/>
		<path fill="#FFFFFF" d="M198.8,45.4h-7.6l5.8-22.5h11.1l5.8,22.5h-7.6l-0.8-3.6h-5.9L198.8,45.4z M202.4,29.8l-1.5,6.3h3.3
			l-1.4-6.3H202.4z"/>
	</g>
</g>
</svg>
