<?xml version="1.0" encoding="utf-8"?>
<!-- Generator: Adobe Illustrator 18.1.1, SVG Export Plug-In . SVG Version: 6.00 Build 0)  -->
<svg version="1.1" id="Layer_1" xmlns="http://www.w3.org/2000/svg" xmlns:xlink="http://www.w3.org/1999/xlink" x="0px" y="0px"
	 viewBox="0 0 64 64" enable-background="new 0 0 64 64" xml:space="preserve">
<g display="none" opacity="0.2">
	<path display="inline" fill="#231F20" d="M385.9-121.8l-14.1-14.1c-1-1-2.5-1.4-3.8-1l-8.1-8l-3-5.9l-5.9-3l-2.9,2.9l3,5.9l5.9,3
		l0,0l8.1,8c-0.4,1.3,0,2.8,1,3.8l14.1,14.1c1.6,1.6,4.1,1.6,5.7,0C387.5-117.7,387.5-120.2,385.9-121.8z"/>
</g>
<g display="none" opacity="0.2">
	<path display="inline" fill="#231F20" d="M389.3-149.6l-6.5,6.5c-1.6,1.6-4.1,1.6-5.7,0c-1.6-1.6-1.6-4.1,0-5.7l6.5-6.5
		c-1.1-0.4-2.4-0.7-3.6-0.7c-5.5,0-10,4.5-10,10c0,1.3,0.3,2.5,0.7,3.6l-11,11c-1.1-0.4-2.4-0.7-3.6-0.7c-5.5,0-10,4.5-10,10
		c0,1.3,0.3,2.5,0.7,3.6l6.5-6.5c1.6-1.6,4.1-1.6,5.7,0c1.6,1.6,1.6,4.1,0,5.7l-6.5,6.5c1.1,0.4,2.4,0.7,3.6,0.7c5.5,0,10-4.5,10-10
		c0-1.3-0.3-2.5-0.7-3.6l11-11c1.1,0.4,2.4,0.7,3.6,0.7c5.5,0,10-4.5,10-10C390-147.3,389.7-148.5,389.3-149.6z"/>
</g>
<g>
	<path fill="#76C2AD" d="M32,0C14.3,0,0,14.3,0,32c0,17.7,14.3,32,32,32s32-14.3,32-32C64,14.3,49.7,0,32,0z M49.9,44.2
		c1.6,1.6,1.6,4.1,0,5.7c-1.6,1.6-4.1,1.6-5.7,0L32,37.7l-2.7,2.7c0.4,1.1,0.7,2.4,0.7,3.6c0,5.5-4.5,10-10,10
		c-1.3,0-2.5-0.3-3.6-0.7l6.5-6.5c1.6-1.6,1.6-4.1,0-5.7c-1.6-1.6-4.1-1.6-5.7,0l-6.5,6.5C10.3,46.5,10,45.3,10,44
		c0-5.5,4.5-10,10-10c1.3,0,2.5,0.3,3.6,0.7l4.1-4.1L21,23.9l0,0l-5.9-3l-3-5.9l2.9-2.9l5.9,3l3,5.9l6.7,6.7l4.1-4.1
		C34.3,22.5,34,21.3,34,20c0-5.5,4.5-10,10-10c1.3,0,2.5,0.3,3.6,0.7l-6.5,6.5c-1.6,1.6-1.6,4.1,0,5.7c1.6,1.6,4.1,1.6,5.7,0
		l6.5-6.5c0.4,1.1,0.7,2.4,0.7,3.6c0,5.5-4.5,10-10,10c-1.3,0-2.5-0.3-3.6-0.7L37.7,32L49.9,44.2z"/>
	<polygon fill="#4F5D73" points="23.9,21.1 20.8,15.2 14.9,12.1 12.1,15 15.1,20.9 21,23.9 21,23.9 27.7,30.6 30.6,27.7 	"/>
	<path fill="#F5CF87" d="M32,37.7l12.2,12.2c1.6,1.6,4.1,1.6,5.7,0c1.6-1.6,1.6-4.1,0-5.7L37.7,32L32,37.7z"/>
	<path fill="#FFFFFF" d="M44,30c5.5,0,10-4.5,10-10c0-1.3-0.3-2.5-0.7-3.6l-6.5,6.5c-1.6,1.6-4.1,1.6-5.7,0c-1.6-1.6-1.6-4.1,0-5.7
		l6.5-6.5C46.5,10.3,45.3,10,44,10c-5.5,0-10,4.5-10,10c0,1.3,0.3,2.5,0.7,3.6l-4.1,4.1l-2.9,2.9l-4.1,4.1C22.5,34.3,21.3,34,20,34
		c-5.5,0-10,4.5-10,10c0,1.3,0.3,2.5,0.7,3.6l6.5-6.5c1.6-1.6,4.1-1.6,5.7,0c1.6,1.6,1.6,4.1,0,5.7l-6.5,6.5
		c1.1,0.4,2.4,0.7,3.6,0.7c5.5,0,10-4.5,10-10c0-1.3-0.3-2.5-0.7-3.6l2.7-2.7l5.7-5.7l2.7-2.7C41.5,29.7,42.7,30,44,30z"/>
</g>
</svg>
