<?xml version="1.0" encoding="utf-8"?>
<!-- Generator: Adobe Illustrator 18.1.1, SVG Export Plug-In . SVG Version: 6.00 Build 0)  -->
<svg version="1.1" id="Layer_1" xmlns="http://www.w3.org/2000/svg" xmlns:xlink="http://www.w3.org/1999/xlink" x="0px" y="0px"
	 viewBox="0 0 64 64" enable-background="new 0 0 64 64" xml:space="preserve">
<g>
	<circle fill="#3B9098" cx="32" cy="32" r="32"/>
</g>
<g display="none" opacity="0.2">
	<path display="inline" fill="#231F20" d="M30.9,39.7c-1.6,1.6-6.1,12.5-6.1,12.5c-0.7,1.2,0.3,2.1,2.6,0.9l8.1-4.4
		c4.4-2.4,5.2-3.1,5.2-8l-0.8-5.9c-0.3-2-1.8-2.4-3.3-0.8L30.9,39.7z"/>
</g>
<g display="none" opacity="0.2">
	<path display="inline" fill="#231F20" d="M25.9,34.7c-1.6,1.6-12.5,6.1-12.5,6.1c-1.2,0.7-2.1-0.3-0.9-2.6l4.4-8.1
		c2.4-4.4,3.1-5.2,8-5.2l5.9,0.8c2,0.3,2.4,1.8,0.8,3.3L25.9,34.7z"/>
</g>
<g>
	<path fill="#C75C5C" d="M32.1,37.7C30.5,39.2,26,50.2,26,50.2c-0.7,1.2,0.3,2.1,2.6,0.9l8.1-4.4c4.4-2.4,5.2-3.1,5.2-8l-0.8-5.9
		c-0.3-2-1.8-2.4-3.3-0.8L32.1,37.7z"/>
</g>
<g>
	<path fill="#C75C5C" d="M27.1,32.7c-1.6,1.6-12.5,6.1-12.5,6.1c-1.2,0.7-2.1-0.3-0.9-2.6L18,28c2.4-4.4,3.1-5.2,8-5.2l5.9,0.8
		c2,0.3,2.4,1.8,0.8,3.3L27.1,32.7z"/>
</g>
<g display="none" opacity="0.2">
	<path display="inline" fill="#231F20" d="M20.1,39.5c5.1-5.1,9.3-3.5,9.3-3.5s1.5,4.3-3.5,9.3s-13.3,8.8-13.9,8.1
		C11.3,52.9,15,44.6,20.1,39.5z"/>
</g>
<g>
	<path fill="#E0995E" d="M21.2,37.5c5.1-5.1,9.3-3.5,9.3-3.5s1.5,4.3-3.5,9.3s-13.3,8.8-13.9,8.1C12.5,50.9,16.2,42.6,21.2,37.5z"/>
</g>
<g>
	<path fill="#F5CF87" d="M25.5,33.3c5.1-5.1,9.3-3.5,9.3-3.5s1.5,4.3-3.5,9.3S18,47.9,17.4,47.2C16.7,46.6,20.4,38.4,25.5,33.3z"/>
</g>
<g display="none" opacity="0.2">
	<path display="inline" fill="#231F20" d="M42.4,37.1c-7.8,7.8-19.8,5.7-19.8,5.7s-2.1-12,5.7-19.8s19.6-8.6,21.2-7.1
		C51,17.4,50.3,29.3,42.4,37.1z"/>
</g>
<g>
	<path fill="#E0E0D1" d="M43.6,35.1c-7.8,7.8-19.8,5.7-19.8,5.7s-2.1-12,5.7-19.8s19.6-8.6,21.2-7.1C52.2,15.4,51.4,27.3,43.6,35.1z
		"/>
</g>
<g display="none" opacity="0.2">
	<path display="inline" fill="#231F20" d="M19.8,47c-0.8,0.8-1.3,1.5-2.1,0.7l0,0c-0.8-0.8-0.1-1.3,0.7-2.1l9.9-12.7
		c0.8-0.8,4.2-1.5,4.9-0.7l0,0c0.8,0.8,0.1,4.2-0.7,4.9L19.8,47z"/>
</g>
<g>
	<path fill="#C75C5C" d="M21,45c-0.8,0.8-1.3,1.5-2.1,0.7l0,0c-0.8-0.8-0.1-1.3,0.7-2.1l9.9-12.7c0.8-0.8,4.2-1.5,4.9-0.7l0,0
		c0.8,0.8,0.1,4.2-0.7,4.9L21,45z"/>
</g>
<g display="none" opacity="0.2">
	<circle display="inline" fill="#231F20" cx="38.4" cy="27.1" r="4"/>
</g>
<g display="none" opacity="0.2">
	<circle display="inline" fill="#231F20" cx="44.1" cy="21.5" r="2"/>
</g>
<g>
	<circle fill="#408F9A" cx="39.6" cy="25.1" r="4"/>
</g>
<g>
	<circle fill="#408F9A" cx="45.3" cy="19.5" r="2"/>
</g>
</svg>
