<?xml version="1.0" encoding="utf-8"?>
<svg version="1.1" id="Layer_1" xmlns="http://www.w3.org/2000/svg" xmlns:xlink="http://www.w3.org/1999/xlink" x="0px" y="0px"
	 viewBox="0 0 27 23" enable-background="new 0 0 27 23" xml:space="preserve">
<g display="none" opacity="0.2">
	<g display="inline">
		<path fill="#231F20" d="M8.5,25c-0.6,0-1.2-0.3-1.6-0.8l-6.1-8c-0.7-0.9-0.5-2.1,0.4-2.8c0.9-0.7,2.1-0.5,2.8,0.4l4.2,5.5
			c2.3-4.2,7.3-11.8,15.3-16.9c0.9-0.6,2.2-0.3,2.8,0.6c0.6,0.9,0.3,2.2-0.6,2.8c-10.2,6.6-15.2,18-15.3,18.1
			C10,24.4,9.4,24.9,8.7,25C8.6,25,8.5,25,8.5,25z"/>
	</g>
</g>
<g>
	<path fill="#E8637A" d="M8.4,23c-0.6,0-1.2-0.3-1.6-0.8l-6.3-8c-0.7-0.9-0.5-2.1,0.4-2.8c0.9-0.7,2.2-0.5,2.9,0.4L8,17.3
		c2.4-4.2,7.6-11.8,15.8-16.9c1-0.6,2.2-0.3,2.9,0.6c0.6,0.9,0.3,2.2-0.6,2.8c-10.5,6.6-15.7,18-15.8,18.1C10,22.4,9.4,22.9,8.6,23
		C8.5,23,8.5,23,8.4,23z"/>
</g>
</svg>
